<svg xmlns="http://www.w3.org/2000/svg" width="80" height="80"><path d="M49.5 5.5a2 2 0 011.06 3.696l4.213 20.676 2.457-11.827a1.996 1.996 0 01-.725-1.396L56.5 16.5a2 2 0 113.235 1.573l4.223 20.332.021.204v19.187l.021.018v5.652l4 3.038V73H12v-6.496l4-3.038V39.033l.02-.2 4.233-20.77a2 2 0 112.494 0l2.401 11.785 4.29-20.653a2 2 0 01-.933-1.546L28.5 7.5a2 2 0 113.063 1.695l4.416 21.268.021.204v5.042l4.015-3.211L44 35.686v-4.603l.02-.2 4.42-21.687A1.999 1.999 0 0149.5 5.5zM40 47.755l-26 19.74V71h52v-3.504L40 47.755zm-.017-6.491L36 44.265v.068h-.091L18 57.83v4.118l22-16.704 21.979 16.688V58.76L39.983 41.264zm18.496-19.397L55 38.608v11.909l-.173-.001 7.152 5.689V38.711l-3.5-16.844zm-36.979.089L18 39.13v16.197l7-5.276V39.135l-3.5-17.179zm28-7.95L46 31.185v12.31l7 5.568V31.18l-3.5-17.174zm-19-.087L27 30.769v17.775l7-5.275V30.774l-3.5-16.855zm9.514 21.14L36 38.27v3.492l4.017-3.027L44 41.904v-3.657l-3.986-3.188z" fill="#225563" fill-rule="evenodd"/></svg>