<svg xmlns="http://www.w3.org/2000/svg" width="48" height="48"><path d="M29.506 5.09l1.455 1.447a5.438 5.438 0 003.596 1.59l.273.006h6.853v3.963l-.605.602a6.58 6.58 0 00-1.958 4.7c0 1.676.619 3.254 1.752 4.485l.206.213.605.602v3.05c0 3.93-1.538 7.628-4.326 10.406a14.69 14.69 0 01-8.92 4.231l-.39.035-.397.023L24 43.872l-3.651-3.429a14.684 14.684 0 01-9.135-3.749l-.288-.266-.283-.274a14.594 14.594 0 01-4.306-9.647l-.015-.393-.005-.366v-3.05l.605-.602a6.581 6.581 0 001.958-4.699c0-1.593-.559-3.1-1.58-4.292l-.196-.22-.182-.187-.605-.602V8.133h6.853a5.433 5.433 0 003.483-1.245l.204-.177.182-.174 1.455-1.448 1.455 1.448c.891.888 2.208 1.462 3.543 1.576l.268.016.24.005c1.423 0 2.868-.53 3.869-1.425l.182-.172 1.455-1.448zM30 28H17l-.001 9.8c1.072.36 2.197.577 3.351.642l.434.017.383.009L24 41.128l2.833-2.66.383-.01c.95-.021 1.882-.146 2.784-.367V28zm9.485 0H32v9.418a12.758 12.758 0 003.946-2.681A12.595 12.595 0 0039.485 28zM24 29a4 4 0 110 8 4 4 0 010-8zm-9-1H8.515a12.595 12.595 0 003.54 6.737 12.814 12.814 0 002.944 2.195L15 28zm9 3a2 2 0 100 4 2 2 0 000-4zm14.45-9H9.55c-.275.434-.59.845-.945 1.23l-.288.298v2.207L8.32 26h31.36l.003-.251-.001-2.219-.245-.253A8.707 8.707 0 0138.45 22zM22 23v2h-2v-2h2zm3 0v2h-2v-2h2zm3 0v2h-2v-2h2zm-15-5h-2.14a8.593 8.593 0 01-.38 2H13v-2zm15-8.935a8.1 8.1 0 01-3 1.004v9.93h3V9.065zm2-.699V20h3V9.91a7.416 7.416 0 01-2.723-1.317L30 8.366zm9.682 1.767h-4.683v9.866h2.52a8.592 8.592 0 01-.376-1.96l-.018-.328-.005-.314c0-2.203.825-4.285 2.328-5.89l.234-.242v-1.132zM17 9.083a7.406 7.406 0 01-2 .826V14l-4.815-.001c.274.638.47 1.309.583 2L15 16v4h2v-4h6v-2h-6V9.083zM23 18h-4v2h4v-2zM8.317 10.133v1.131l.235.242c.157.167.306.34.448.518V12h4v-1.867H8.316zm10.682-1.76L19 12h4v-1.93c-1.368-.175-2.69-.7-3.759-1.506L19 8.374z" fill="#225563" fill-rule="evenodd"/></svg>