<svg xmlns="http://www.w3.org/2000/svg" width="48" height="48"><path d="M37 8v29.978C37 39.712 35.823 41 34 41c-1.758 0-2.915-1.18-2.996-2.816L31 38l-.001-11.73-.16-.057a4.705 4.705 0 01-1.267-.742l-.226-.196-.186-.182c-.81-.827-1.09-1.892-1.147-3.515l-.01-.432L28 15.5c0-4.335 3.06-7.381 7.724-7.497L36 8h1zm-12.502.945L25 18c0 1.458-.668 2.95-1.754 4.166l-.17.188-.378.403-.428.439-.478.475-.53.51-.262.25V38c0 1.63-1.183 2.906-2.817 2.995L18 41c-1.666 0-2.909-1.217-2.995-2.82L15 38V24.432l-.534-.51-.503-.493-.233-.233-.428-.44-.378-.402-.17-.188c-1.018-1.14-1.669-2.523-1.745-3.938l-.007-.283.5-9 1.996.11L13 18c0 .92.465 1.96 1.246 2.834l.158.174.354.377.405.415.456.453.507.49.558.527.316.296V38c0 .6.39 1 1 1 .567 0 .943-.346.994-.875L19 38V23.566l.874-.823.507-.49.456-.453.405-.415.354-.377.158-.174c.721-.807 1.173-1.754 1.239-2.576l.009-.203-.5-9 1.996-.11zM35 10.056c-3.044.353-4.894 2.335-4.995 5.197L30 15.5v5.378l.011.61c.04 1.16.214 1.834.578 2.207.387.395.838.651 1.373.778l.205.041.833.14V38c0 .659.317 1 1 1 .63 0 .955-.309.996-.893l.004-.129-.001-27.922zM17 8v11h-2V8h2zm4 0v11h-2V8h2z" fill="#225563" fill-rule="evenodd"/></svg>