<svg xmlns="http://www.w3.org/2000/svg" width="48" height="48"><path d="M29 6a1 1 0 01.346 1.939l2.134 8.894 1.176-4.894a1 1 0 11.69 0L36 23v15.455l2 1.556V44H9v-3.99l2-1.555V23l2.656-11.06a1 1 0 11.69-.001l1.174 4.894 2.136-8.894a1.001 1.001 0 01-.65-.822L17 7a1 1 0 111.346.939L21 19v2.719l2.5-2 2.5 2V19l2.656-11.06A1 1 0 0129 6zm-5.501 25.266L11 40.988V42h25v-1.011l-12.501-9.723zm-.016-4.484L13 34.986v1.913l10.5-8.166L34 36.9V35.47l-10.517-8.688zM33 19.068l-1 4.169V30.5l2 1.5v-8.767l-1-4.165zm-19 0l-1 4.165V32l2-1.5v-7.263l-1-4.169zm15-4l-1 4.169V27.5l2 1.5v-9.767l-1-4.165zm-11 0l-1 4.165V29l2-1.5v-8.263l-1-4.169zm5.499 7.212L21 24.279v1.906l2.517-1.968L26 26.268v-1.987l-2.501-2.001z" fill="#225563" fill-rule="evenodd"/></svg>