<svg width="59" height="58" viewBox="0 0 59 58" fill="none" xmlns="http://www.w3.org/2000/svg">
<path d="M49.5335 50.3458H9.46573C7.06782 50.3427 4.76904 49.4048 3.07361 47.7378C1.37819 46.0708 0.424551 43.8108 0.421875 41.4536V16.5451C0.424552 14.1879 1.37824 11.9281 3.07372 10.2614C4.76919 8.59464 7.06797 7.65711 9.46573 7.65448H49.5335C51.9314 7.65711 54.2304 8.59459 55.9261 10.2613C57.6218 11.928 58.5759 14.1878 58.579 16.5451V41.4536C58.5763 43.8111 57.6225 46.0714 55.9267 47.7384C54.2309 49.4055 51.9317 50.3432 49.5335 50.3458ZM9.46573 11.7973C8.18526 11.7987 6.95762 12.2993 6.05219 13.1894C5.14676 14.0794 4.6375 15.2863 4.63616 16.5451V41.4536C4.63705 42.7126 5.14611 43.9199 6.05159 44.8103C6.95707 45.7008 8.18497 46.2016 9.46573 46.2029H49.5335C50.8144 46.2016 52.0425 45.7008 52.9482 44.8104C53.854 43.92 54.3634 42.7128 54.3647 41.4536V16.5451C54.3629 15.2861 53.8533 14.0793 52.9476 13.1893C52.0419 12.2992 50.8141 11.7987 49.5335 11.7973H9.46573Z" fill="white"/>
<path d="M29.4765 34.5764C27.7086 34.5935 25.9863 34.0243 24.588 32.9607L2.05332 15.3071C1.6163 14.9645 1.33562 14.4653 1.27303 13.9193C1.21044 13.3733 1.37105 12.8251 1.71955 12.3955C2.06805 11.9659 2.57588 11.69 3.13133 11.6285C3.68677 11.5669 4.24433 11.7248 4.68135 12.0674L27.2092 29.721C27.8747 30.185 28.6709 30.4333 29.4868 30.4312C30.3027 30.4291 31.0976 30.1768 31.7607 29.7094L54.0104 12.0757C54.4452 11.7309 55.0015 11.57 55.5569 11.6285C56.1124 11.6869 56.6215 11.9598 56.9722 12.3872C57.3229 12.8147 57.4866 13.3615 57.4272 13.9076C57.3677 14.4536 57.0901 14.9541 56.6553 15.2988L34.4123 32.9325C33.0043 34.0148 31.2638 34.5945 29.4765 34.5764Z" fill="white"/>
</svg>
