<svg xmlns="http://www.w3.org/2000/svg" width="48" height="48"><path d="M31 36v-6a7 7 0 00-7-7c-3.704 0-6.75 2.882-6.985 6.527l-.011.24L17 30v6H3v-6C3 18.402 12.402 9 24 9c11.48 0 20.81 9.213 20.997 20.65L45 30v6H31zm-7-25C13.62 11 5.183 19.325 5.003 29.662L5 30v4h2v-4.175l.004-.175c.006-.297.02-.593.04-.886l.052-.578-.015.14a16.976 16.976 0 01.67-3.337 16.902 16.902 0 011.93-4.158l.318-.476.038-.055a16.939 16.939 0 012.597-2.942c.174-.157.352-.31.533-.46l.274-.222a16.99 16.99 0 011.087-.795l.386-.251.171-.107a16.875 16.875 0 012.085-1.095 16.916 16.916 0 016.346-1.421L24 13l.323.003c9.132.17 16.504 7.542 16.674 16.674L41 30v4h2v-4c0-10.267-8.143-18.631-18.322-18.988l-.34-.01L24 11zm-6.177 7.559l.358-.187.324-.157c.383-.179.776-.34 1.177-.48l.46-.153.272-.08c.165-.048.33-.092.498-.133l.525-.116.223-.043.35-.059.514-.068.452-.043.24-.017c.26-.015.52-.023.784-.023 7.077 0 12.833 5.655 12.996 12.693L37 30v4h2v-4a15.263 15.263 0 00-.134-2.012l-.068-.458-.057-.319-.107-.518.044.202a14.896 14.896 0 00-.212-.874l-.107-.372-.156-.486-.099-.28-.173-.456.07.179c-.14-.363-.293-.718-.46-1.066l-.147-.3-.187-.357-.087-.16-.218-.38-.23-.372-.238-.364-.256-.366-.207-.28-.162-.211-.267-.33-.286-.335-.116-.13a15.092 15.092 0 00-.38-.407l-.18-.18-.357-.345-.26-.236-.203-.178-.207-.174-.237-.192-.35-.269-.336-.244-.352-.241-.353-.227-.383-.231-.375-.211-.271-.144-.517-.256-.438-.198-.28-.117-.276-.11-.478-.174-.376-.124a14.882 14.882 0 00-.583-.172l-.375-.097-.38-.087-.406-.083a14.948 14.948 0 00-1.115-.166l-.347-.034a15.131 15.131 0 00-.613-.041l-.355-.013L24 15l-.358.004c-.271.007-.54.02-.808.04l-.468.044-.323.038-.308.044-.215.034c-.502.084-.996.192-1.48.324l-.44.128-.524.17a14.89 14.89 0 00-1.222.487l-.305.141-.287.141-.372.194-.475.267-.337.204-.352.226-.248.168-.445.32-.455.353-.287.238-.207.18-.27.243-.37.353-.082.083a14.95 14.95 0 00-4.35 9.941l-.009.317L9 30v4h2v-4a13.217 13.217 0 01.08-1.446l.024-.205.089-.592.093-.482.048-.218.114-.452.051-.185.077-.258.156-.474.176-.471.17-.41.122-.27.14-.291c.073-.15.15-.297.229-.443l.248-.436.355-.564.282-.407.23-.308.222-.281.137-.165.238-.276.244-.267.323-.332.181-.176.341-.313c.226-.2.458-.393.697-.578l.43-.317c.292-.207.593-.403.903-.585l.423-.24zm9.234.871l-.262-.072-.265-.066-.25-.055-.236-.047-.242-.043-.36-.053-.271-.032-.439-.038-.221-.012-.223-.008L24 19l-.348.005-.26.012-.258.017-.286.026-.33.039-.35.053-.43.081-.389.089-.297.078-.412.123-.255.085-.369.136-.275.11-.23.1-.252.117-.243.12-.265.14-.333.188-.242.147-.445.293-.079.056a10.987 10.987 0 00-4.647 8.638L13 30v4h2v-4.015l.004-.265a9 9 0 0117.992.015L33 30v4h2v-4a11.19 11.19 0 00-.135-1.728l-.042-.25a10.935 10.935 0 00-.15-.697l-.111-.41a10.913 10.913 0 00-.175-.545l-.14-.38-.117-.285-.091-.209-.127-.272-.134-.267-.169-.315-.139-.241-.202-.329-.15-.228-.247-.35-.233-.305-.256-.313-.183-.21-.261-.281-.209-.212-.32-.304-.382-.332-.21-.171-.304-.232-.244-.174-.33-.22-.36-.223-.212-.121-.248-.135-.25-.127-.252-.121-.091-.042c-.18-.08-.36-.157-.545-.228l-.24-.09-.26-.091-.136-.044-.288-.088z" fill="#225563" fill-rule="evenodd"/></svg>