<svg width="43" height="70" viewBox="0 0 43 70" fill="none" xmlns="http://www.w3.org/2000/svg">
<path fill-rule="evenodd" clip-rule="evenodd" d="M11.933 11.7902C14.6405 9.08305 18.1963 7.72969 21.7522 7.72969C25.3078 7.72969 28.8637 9.08305 31.5714 11.7898C36.9846 17.204 36.9846 26.0133 31.5714 31.4272L21.7522 41.2464L11.933 31.4276C6.51955 26.0133 6.51955 17.204 11.933 11.7902ZM6.97018 36.3907L21.7522 51.1725L36.5339 36.3903C44.6849 28.2398 44.6849 14.9775 36.5339 6.82698V6.82658C28.384 -1.32357 15.1203 -1.32397 6.97018 6.82698C-1.18057 14.9775 -1.18057 28.2398 6.97018 36.3907ZM21.7505 69.2853C31.8999 69.2853 40.2046 61.2279 40.5976 51.1735H33.5671C33.1804 57.3545 28.0265 62.2612 21.7505 62.2612C15.4744 62.2612 10.3205 57.3545 9.93374 51.1735H2.90949C3.30271 61.2279 11.6075 69.2853 21.7505 69.2853Z" fill="#00BEAC"/>
</svg>
