<svg xmlns="http://www.w3.org/2000/svg" width="80" height="80"><path d="M40 17a2 2 0 011.993 2.165c5.357.895 9.513 5.34 9.966 10.835H52v6h7a2 2 0 011.85-1.995L61 34a2 2 0 011.995 1.85L63 36h8a2 2 0 013.995-.15L75 36v37h-6V58h-5v15h-6V54a4 4 0 00-4-4c-2.077 0-3.795 1.587-3.982 3.608l-.014.196L50 54v19h-6V54a4 4 0 00-4-4c-2.077 0-3.795 1.587-3.982 3.608l-.014.196L36 54v19h-6V54a4 4 0 00-4-4c-2.077 0-3.795 1.587-3.982 3.608l-.014.196L22 54v19h-6V58h-5v15H5V36l.005-.15a2 2 0 013.99 0L9 36h8a2 2 0 013.995-.15L21 36h7v-6h.041c.453-5.494 4.609-9.94 9.966-10.835A2 2 0 0140 17zm33 26H7v28h2V56h9v15h2V53.979l.006-.239a6 6 0 0111.99.035L32 54v17h2V53.979l.006-.239a6 6 0 0111.99.035L46 54v17h2V53.979l.006-.239a6 6 0 0111.99.035L60 54v17h2V56h9v15h2V43zm0-5H7v3h66v-3zm-23-6H30v4h20v-4zM40 21c-5.185 0-9.449 3.947-9.95 9h19.9c-.501-5.053-4.765-9-9.95-9z" fill="#225563" fill-rule="evenodd"/></svg>