<svg xmlns="http://www.w3.org/2000/svg" width="120" height="120"><defs><linearGradient x1="56.915%" y1="-9.863%" x2="35.282%" y2="159.687%" id="map_illu-a"><stop stop-color="#D6F6F3" offset="0%"/><stop stop-color="#00BEAC" offset="100%"/><stop stop-color="#00BEAC" offset="100%"/></linearGradient><linearGradient x1="62.636%" y1="-23.941%" x2="43.53%" y2="77.598%" id="map_illu-b"><stop stop-color="#D6F6F3" offset="0%"/><stop stop-color="#00BEAC" offset="100%"/><stop stop-color="#00BEAC" offset="100%"/></linearGradient><linearGradient x1="150.444%" y1="-109.824%" x2="-45.911%" y2="214.565%" id="map_illu-c"><stop stop-color="#D6F6F3" offset="0%"/><stop stop-color="#00BEAC" offset="100%"/><stop stop-color="#00BEAC" offset="100%"/></linearGradient></defs><g fill="none" fill-rule="evenodd"><path fill="url(#map_illu-a)" fill-rule="nonzero" d="M10 24.234L43 12v84.766L10 109zM76 24.234L109 12v84.766L76 109z"/><path fill="url(#map_illu-b)" fill-rule="nonzero" transform="matrix(-1 0 0 1 119 0)" d="M43 24.234L76 12v84.766L43 109z"/><path d="M60 72l-6.367-6.445c-3.51-3.554-3.51-9.336 0-12.89a8.938 8.938 0 0112.734 0c3.51 3.554 3.51 9.336 0 12.89L60 72z" fill="#FFF"/><circle fill="url(#map_illu-c)" fill-rule="nonzero" cx="60" cy="59" r="2"/></g></svg>