<svg width="60" height="60" viewBox="0 0 60 60" fill="none" xmlns="http://www.w3.org/2000/svg">
<path d="M58.5 30C58.5 45.7401 45.7401 58.5 30 58.5C14.2599 58.5 1.5 45.7401 1.5 30C1.5 14.2599 14.2599 1.5 30 1.5C45.7401 1.5 58.5 14.2599 58.5 30Z" fill="#28B446" stroke="white" stroke-width="3"/>
<path d="M46.875 17.3438H13.125C12.0938 17.3438 11.25 18.1875 11.25 19.2188V38.9062C11.25 39.9375 12.0938 40.7812 13.125 40.7812H22.5V47.8594C22.5 48.2344 22.9219 48.4688 23.25 48.2344L33.75 40.7812H46.875C47.9062 40.7812 48.75 39.9375 48.75 38.9062V19.2188C48.75 18.1875 47.9062 17.3438 46.875 17.3438Z" fill="white"/>
</svg>
