<svg xmlns="http://www.w3.org/2000/svg" width="48" height="48"><path d="M37 7.737V31.3c0 2.02-1.624 3.9-3.711 4.265l-.21.032-2.926.364c-2.69.335-5.153-1.526-5.153-4.038 0-1.996 1.584-3.651 3.693-4.006l.213-.031L35 27.117V16.262l-15.016 3.533-.033 15.777c0 2.032-1.298 3.59-3.261 3.966l-.213.035-2.665.384C11.27 40.323 9 38.337 9 35.758c0-2.038 1.44-3.78 3.405-4.162l.205-.035 5.351-.82.04-18.533L37 7.738zM17.956 32.764l-5.053.775A2.233 2.233 0 0011 35.76c0 1.313 1.105 2.33 2.374 2.235l.153-.017 2.665-.383c1.042-.15 1.688-.837 1.753-1.852l.006-.172.005-2.806zM35 29.134l-5.845.736C27.893 30.028 27 30.924 27 31.923c0 1.187 1.246 2.172 2.734 2.07l.172-.017 2.925-.364c1.138-.142 2.08-1.142 2.163-2.165L35 31.3v-2.166zm0-18.872l-15.003 3.53-.009 3.947L35 14.207v-3.945z" fill="#225563" fill-rule="evenodd"/></svg>