<svg xmlns="http://www.w3.org/2000/svg" width="48" height="48"><path d="M17.573 18.894a6.5 6.5 0 0110.488 1.368A7.24 7.24 0 0130 20c3.555 0 6.65 2.542 7.374 5.888l.018.09.021.003c2.788.409 4.946 2.738 5.052 5.59l.004.22c0 3.156-3.035 6.08-6.254 6.205L36 38H17l.002-6.059c.067-1.145.763-2.3 1.752-3.185a6.5 6.5 0 01-1.18-9.862zM30 22c-.439 0-.868.053-1.28.156a6.487 6.487 0 01-1.64 5.604 6.497 6.497 0 01-6.188 1.908c-.96.55-1.746 1.472-1.875 2.194L19 32v4h17c2.154 0 4.337-1.994 4.463-4.024l.006-.185c0-2.07-1.65-3.764-3.73-3.868l-.194-.006-.954.001-.071-.923C35.308 24.24 32.848 22 30 22zm-4.778-2.118a4.5 4.5 0 10.34.316l-.166-.162-.174-.154zM13 23v2H7v-2h6zm-1.793-11.207l4.5 4.5-1.414 1.414-4.5-4.5 1.414-1.414zM23 8v6h-2V8h2z" fill="#225563" fill-rule="evenodd"/></svg>