<svg width="48" height="48" viewBox="0 0 48 48" fill="none" xmlns="http://www.w3.org/2000/svg">
<path fill-rule="evenodd" clip-rule="evenodd" d="M33.1951 7C37.6744 7 41.3062 10.6321 41.3062 15.1111C41.3062 19.5904 37.6746 23.2222 33.1951 23.2222C31.5363 23.2222 29.8276 22.6594 28.4459 21.7158L22.283 28.391V39H27.284V41H15.284V39H20.283V28.391L7 14L25.1594 14.0006C25.7009 10.0469 29.0925 7 33.1951 7ZM30.999 16H11.568L21.284 26.525L30.999 16ZM33.1951 9C30.1995 9 27.7069 11.1563 27.1846 14.0009L35.568 14L29.8222 20.2256C30.8319 20.8498 32.0434 21.2222 33.1951 21.2222C36.57 21.2222 39.3062 18.4859 39.3062 15.1111C39.3062 11.7367 36.5698 9 33.1951 9Z" fill="#225563"/>
</svg>
