<svg xmlns="http://www.w3.org/2000/svg" width="48" height="48"><path d="M31.672 8.005a9.956 9.956 0 00-7.569 3.886l-.104.137-.102-.138C22.03 9.477 19.154 8 16.015 8 10.481 8 6 12.544 6 18.141c0 4.935 2.694 9.72 7.395 14.176a45.661 45.661 0 002.994 2.578 73.55 73.55 0 004.872 3.534l.676.446.631.408.85.533.59.357.765-.478.38-.244.616-.402.664-.442.349-.235a83.283 83.283 0 004.945-3.612 51.585 51.585 0 002.866-2.433C39.521 27.794 42 23.259 42 18.14 42 12.544 37.519 8 31.985 8l-.313.005zM31.985 10C36.408 10 40 13.642 40 18.141c0 4.486-2.21 8.528-6.76 12.714a49.618 49.618 0 01-2.755 2.338 81.326 81.326 0 01-4.826 3.524l-.67.45-.626.413-.37.239-.65-.415-.637-.416a71.59 71.59 0 01-5.073-3.659 43.696 43.696 0 01-2.862-2.464C10.43 26.752 8 22.434 8 18.14 8 13.642 11.592 10 16.015 10c3.008 0 5.72 1.701 7.097 4.365L24 16.083l.888-1.718C26.265 11.7 28.977 10 31.985 10z" fill="#225563" fill-rule="evenodd"/></svg>