<svg xmlns="http://www.w3.org/2000/svg" width="48" height="48"><path d="M24.206 7c3.75 0 7.632 2.878 7.79 6.286L32 13.5v1.499l7.054.001-1.056 20.06c-.195 3.288-3.284 5.825-6.76 5.936L31 41H18c-3.492 0-6.655-2.464-6.98-5.724L11 35.053 9.946 15 17 14.999V13.5C17 9.957 20.474 7 24.206 7zm12.74 9.999H32V23h-2v-6.001H19V23h-2v-6.001h-4.947l.945 17.942c.125 2.097 2.162 3.842 4.55 4.04l.225.014L18 39h13c2.502 0 4.735-1.724 4.984-3.858l.017-.195L36.946 17zM24.206 9c-2.62 0-5.07 2.026-5.2 4.31L19 13.5v1.499h11V13.5c0-2.255-2.969-4.5-5.794-4.5z" fill="#225563" fill-rule="evenodd"/></svg>