<svg width="45" height="45" viewBox="0 0 45 45" fill="none" xmlns="http://www.w3.org/2000/svg">
<path d="M23.5039 14.5431C18.3301 14.5431 13.1548 14.5558 7.98103 14.5431C5.83787 14.5431 4.53928 12.9064 5.15206 11.0506C5.53148 9.89484 6.46971 9.27253 7.96039 9.2646C11.1481 9.24713 14.3359 9.2646 17.5221 9.2646C24.7247 9.2646 31.9273 9.25348 39.1283 9.27412C41.2984 9.27412 42.5732 10.8855 41.9557 12.7397C41.5683 13.924 40.5888 14.5384 39.0283 14.5399C33.8519 14.5484 28.6771 14.5495 23.5039 14.5431Z" fill="#333333"/>
<path d="M23.4405 25.1703C19.6304 25.1703 15.8204 25.1926 12.0183 25.1608C9.90208 25.1433 8.6146 23.6225 9.10356 21.8191C9.45916 20.5093 10.4625 19.8362 12.158 19.8299C15.7172 19.8172 19.2748 19.8299 22.8341 19.8299C26.9315 19.8299 31.0289 19.8092 35.1247 19.8394C37.2472 19.8553 38.5299 21.3698 38.0394 23.1732C37.687 24.4766 36.6757 25.1592 34.9866 25.164C31.1384 25.1814 27.2887 25.1719 23.4405 25.1703Z" fill="#333333"/>
<path d="M23.5964 35.7272C22.274 35.7272 20.95 35.7637 19.6276 35.716C18.11 35.6605 17.0193 34.5508 17.0003 33.1315C16.9796 31.6678 18.1115 30.4931 19.6895 30.4677C22.2931 30.4264 24.8982 30.4312 27.5018 30.4677C29.0988 30.4883 30.2323 31.6059 30.2577 33.0712C30.2831 34.5365 29.1464 35.6716 27.5589 35.7224C26.2429 35.7621 24.9189 35.7287 23.5964 35.7272Z" fill="#333333"/>
</svg>
