<svg xmlns="http://www.w3.org/2000/svg" width="48" height="48"><path d="M11.98 11.979c6.638-6.639 17.403-6.639 24.04 0 6.64 6.639 6.64 17.403 0 24.042-6.637 6.639-17.402 6.639-24.04 0-6.64-6.64-6.64-17.403 0-24.042zm7.72 14.454a59.042 59.042 0 00-4.238 6.209l-.505.863-.309.543-.145.261-.481.891a14.947 14.947 0 009.797 3.799c-1.514-4.369-.922-8.894 1.706-12.058l-3.369-3.372a42.08 42.08 0 00-2.455 2.864zm6.205 12.445l.123-.015a14.923 14.923 0 007.848-3.572l-6.929-6.928c-2.094 2.64-2.526 6.447-1.17 10.177l.128.338zm2.462-11.926l6.924 6.924a14.926 14.926 0 003.584-7.937c-3.852-1.553-7.753-1.157-10.508 1.013zm-18.96-2.18l-.383.074a14.94 14.94 0 003.532 8.852l-.019.036c.347-.64.75-1.351 1.208-2.117a61.009 61.009 0 014.384-6.42 43.961 43.961 0 012.612-3.042l-2.316-2.316c-2.621 2.44-5.43 4.08-8.586 4.835l-.432.097zm25.795-10.75l-.227.119-.57.309-.592.33-.308.177-.863.505a59.044 59.044 0 00-6.21 4.24 42.085 42.085 0 00-2.863 2.454l3.376 3.373c3.198-2.637 7.673-3.237 12.053-1.682a14.944 14.944 0 00-3.524-9.51l-.272-.314zm-22.493.102a14.934 14.934 0 00-3.661 8.678c2.909-.628 5.504-2.103 7.96-4.377l-4.299-4.3zm12.17-5.098l-.042.262c-.583 3.46-2.17 6.167-4.994 9.14l2.312 2.314a43.964 43.964 0 013.041-2.613 61.011 61.011 0 016.421-4.384l.718-.422.681-.39.326-.18.358-.196a14.933 14.933 0 00-8.427-3.503l-.394-.028zm-2.03.019l-.202.016a14.932 14.932 0 00-8.523 3.648l4.305 4.304c2.516-2.658 3.898-5.005 4.42-7.968z" fill="#225563" fill-rule="evenodd"/></svg>