<svg xmlns="http://www.w3.org/2000/svg" width="48" height="48"><path d="M24 7C14.611 7 7 14.611 7 24s7.611 17 17 17 17-7.611 17-17c-.01-9.384-7.616-16.99-17-17zm13.165 8.154l-1.178 5.009-6.207 2.068-5.213-4.17v-6.144l5.95-2.38a15.963 15.963 0 016.648 5.617zm.095 17.542l-5.62.887-3.06-4.042 1.56-6.234 6.137-2.045 3.517 4.22a15.763 15.763 0 01-2.534 7.214h0zm-20.875.89l-5.645-.89a15.765 15.765 0 01-2.533-7.217l3.513-4.219 6.139 2.046 1.558 6.236-3.032 4.045zM8.138 23.79c.03-2.528.668-5.012 1.86-7.242l.919 3.91-2.779 3.332zM20.476 29.1l-1.504-6.02L24 19.06l5.029 4.022-1.505 6.018h-7.048zm16.607-8.645l.92-3.91a15.763 15.763 0 011.859 7.241l-2.779-3.331zm-8.112-11.52L24 10.924l-4.998-1.98a15.809 15.809 0 019.97-.009zm-11.515.615l5.977 2.369v6.142l-5.213 4.17-6.207-2.068-1.178-5.009a15.966 15.966 0 016.621-5.604zm-5.77 24.442l4.607.728 2.786 4.364a15.919 15.919 0 01-7.392-5.092zm9.018 5.528l-3.382-5.294 2.995-3.993h7.366l3.038 4.012-2.947 5.164c-2.318.571-4.735.61-7.07.114v-.003zm8.644-.583l2.415-4.227 4.552-.718a15.928 15.928 0 01-6.967 4.945h0z" stroke="#225563" stroke-width=".8" fill="#225563" fill-rule="nonzero"/></svg>