<svg width="33" height="32" viewBox="0 0 33 32" fill="none" xmlns="http://www.w3.org/2000/svg">
<path fill-rule="evenodd" clip-rule="evenodd" d="M8.264 5.44717C12.8041 0.850982 20.1957 0.850982 24.7359 5.44694C29.193 9.95863 29.2686 17.2446 24.9626 21.8501L24.7359 22.0859L16.5 30.4229L8.26403 22.0861C3.73019 17.4966 3.73019 10.0364 8.264 5.44717ZM23.3131 6.8525C19.5559 3.04914 13.444 3.04914 9.68683 6.85272C5.9923 10.5924 5.92388 16.641 9.48158 20.4664L9.68683 20.6805L16.5 27.577L23.3131 20.6803C26.938 17.0112 27.0723 11.1195 23.7159 7.28551L23.5184 7.06663L23.3131 6.8525ZM11.1581 8.23566C14.1026 5.25481 18.8973 5.25481 21.8419 8.23551C24.7161 11.145 24.7786 15.8323 22.0293 18.8189L21.8419 19.0155L16.5 24.4229L11.1581 19.0156C8.22005 16.0415 8.22005 11.2096 11.1581 8.23566ZM20.4191 9.64107C18.2575 7.45296 14.7425 7.45296 12.5809 9.64121C10.4727 11.7752 10.4141 15.2172 12.4052 17.424L12.5809 17.61L16.499 21.577L20.4191 17.6099C22.4671 15.5369 22.5809 12.2295 20.7604 10.0193L20.5948 9.82714L20.4191 9.64107Z" fill="white"/>
</svg>
