<svg xmlns="http://www.w3.org/2000/svg" width="48" height="48"><path d="M24 7a3 3 0 012.862 3.9A4.993 4.993 0 0129 15c0 1.319-.51 2.519-1.345 3.412.64.197 1.148.48 1.55.88a13.47 13.47 0 011.636 2.003c.247.365.479.737.732 1.168l.195.337.723 1.276.192.325c.334.557.613.952.898 1.263l.123.129-.027-.022.098.131.472.57 1.034 1.2.71.8.77.85.48.516.515.542.499.51c.244.243.478.47.695.67l.212.193.135.147.153.219c.24.37.408.766.505 1.182.259 1.11.01 2.233-.539 3.307-.199.39-.4.7-.56.917l-.078.1-.086.094a.996.996 0 01-.085.074c.372 1.905-.342 4.066-1.947 4.2L36.5 42H10.634c-1.3 0-2.108-.91-2.35-2.19a4.968 4.968 0 01.067-2.052.319.319 0 01-.046-.039l-.086-.094a6.206 6.206 0 01-.638-1.017c-.55-1.074-.798-2.197-.539-3.307.097-.416.265-.812.505-1.182L7.7 31.9l.136-.147c.342-.305.737-.689 1.153-1.113l.509-.528.259-.274.48-.517.77-.849.842-.953.601-.695.613-.727.255-.322.002-.005-.027.023c.33-.33.64-.755 1.022-1.392l.19-.325.724-1.276c.333-.582.619-1.05.928-1.505a13.47 13.47 0 011.636-2.002c.56-.56 1.332-.892 2.378-1.078A4.975 4.975 0 0119 15c0-1.697.845-3.197 2.138-4.1A3 3 0 0124 7zm-.502 13.001l-.539.004-.492.01c-1.75.052-2.853.285-3.26.692a11.49 11.49 0 00-1.394 1.71c-.222.326-.433.665-.668 1.065l-.955 1.677c-.473.812-.866 1.388-1.313 1.871l-.265.279-.41.474-1.436 1.735-.427.5a34.061 34.061 0 01-2.68 2.781l-.406.368-.04.059c-.08.127-.141.257-.185.392l-.038.137c-.106.456-.032.982.184 1.529l.084.198L17 29.031 17 26.5a1 1 0 011.993-.117L19 26.5v6.99a1 1 0 01-.761.981c-2.088.513-4.04 1.215-5.579 1.974l-.432.22-.396.218-.182.106-.334.205-.288.191c-.352.245-.575.445-.634.562-.162.325-.24.984-.145 1.492.074.388.175.532.331.557l.054.004h8.234l8.407-2.213-.064-.17c-.241-.598-.551-.96-.916-1.125l-.063-.024-.07-.012c-.781-.116-1.945.013-3.472.395l-.59.154c-.91.25-1.934.58-3.07.99l-.772.286-.399.152a1 1 0 01-.718-1.866l.855-.323c.279-.103.553-.202.82-.296l.788-.27.38-.126.738-.231c2.522-.764 4.436-1.047 5.785-.835l.19.033.12.032c1.398.467 2.267 1.77 2.664 3.753a1 1 0 01-.62 1.129l-.107.034-2.023.532 9.667.001.033-.044c.044-.07.09-.165.129-.283l.038-.124c.144-.529.13-1.2-.047-1.733-.133-.398-.748-.869-1.775-1.365l-.404-.187-.442-.189-.235-.094-.497-.191-.533-.191-.568-.191-.602-.191-.635-.19-.667-.187-.7-.186a54.88 54.88 0 00-.73-.182A1 1 0 0128 33.5h-.003v-4l.002-.057L28 26.5a1 1 0 011.993-.117L30 26.5v2.533l7.74 6.449.083-.198c.189-.478.27-.94.216-1.355l-.032-.174-.038-.137a1.689 1.689 0 00-.11-.264l-.075-.128-.04-.059-.406-.368a33.375 33.375 0 01-2.252-2.294l-.428-.486-.427-.5-1.437-1.736-.409-.474-.265-.279c-.391-.423-.74-.916-1.139-1.577l-.174-.294-.955-1.677c-.235-.4-.446-.739-.667-1.065a11.49 11.49 0 00-1.395-1.71c-.383-.383-1.383-.612-2.958-.68l-.302-.012-.492-.01-.54-.004zM17 31.636l-2.067 1.721.098-.033a33.426 33.426 0 011.97-.598v-1.09zm12.999-.001l-.002 1.083.03.007c.257.066.509.133.755.2l.724.202.438.128-1.945-1.62zM24 12a3 3 0 00-.203 5.993L24 18a3 3 0 000-6zm0-3a1 1 0 00-1 1l.006.099a5.023 5.023 0 011.988 0L25 10a1 1 0 00-1-1z" fill="#225563" fill-rule="evenodd"/></svg>