<svg width="60" height="60" viewBox="0 0 60 60" fill="none" xmlns="http://www.w3.org/2000/svg">
<g clip-path="url(#clip0)">
<circle cx="30.5264" cy="29.4737" r="29.4737" fill="#28B446"/>
<path d="M60 29.2C60 45.3333 46.8 58.4 30.5333 58.4C25.4 58.4 20.5333 57.0667 16.2667 54.7333L0 60L5.33333 44.3333C2.66667 39.9333 1.13333 34.7333 1.13333 29.2667C1.06667 13.0667 14.2667 0 30.5333 0C46.8 0 60 13.0667 60 29.2ZM30.5333 4.66667C16.8667 4.66667 5.8 15.6667 5.8 29.2C5.8 34.6 7.53333 39.5333 10.5333 43.6L7.46667 52.7333L17 49.7333C20.9333 52.3333 25.6 53.8 30.6 53.8C44.2 53.8 55.3333 42.8 55.3333 29.2C55.3333 15.6 44.2 4.66667 30.5333 4.66667ZM45.4 35.9333C45.2 35.6667 44.7333 35.4667 44 35.0667C43.2667 34.7333 39.7333 33 39.0667 32.7333C38.4 32.4667 37.9333 32.4 37.4667 33.0667C37 33.8 35.6 35.4 35.2 35.8667C34.8 36.3333 34.3333 36.4 33.6667 36.0667C32.9333 35.7333 30.6 34.9333 27.8667 32.5333C25.7333 30.6667 24.2667 28.2667 23.8667 27.6C23.4667 26.8667 23.8 26.4667 24.2 26.1333C24.5333 25.8 24.9333 25.2667 25.2667 24.8667C25.6 24.4667 25.7333 24.1333 26 23.6667C26.2667 23.2 26.1333 22.8 25.9333 22.4C25.7333 22.0667 24.3333 18.5333 23.7333 17.0667C23.1333 15.6667 22.5333 15.8667 22.1333 15.8667C21.7333 15.8667 21.2 15.8 20.7333 15.8C20.2667 15.8 19.4667 16 18.8 16.6667C18.1333 17.4 16.2667 19.1333 16.2667 22.6667C16.2667 26.2 18.8667 29.6 19.2 30.0667C19.5333 30.5333 24.2 38 31.5333 40.8667C38.8667 43.7333 38.8667 42.8 40.2 42.6667C41.5333 42.5333 44.4667 40.9333 45.0667 39.2667C45.6 37.6667 45.6 36.2667 45.4 35.9333Z" fill="white"/>
</g>
<defs>
<clipPath id="clip0">
<rect width="60" height="60" fill="white"/>
</clipPath>
</defs>
</svg>
