<svg xmlns="http://www.w3.org/2000/svg" width="120" height="120"><defs><linearGradient x1="113.285%" y1="40.616%" x2="-41.832%" y2="62.231%" id="wifi_illu-a"><stop stop-color="#D6F6F3" offset="0%"/><stop stop-color="#00BEAC" offset="100%"/></linearGradient><linearGradient x1="113.285%" y1="18.815%" x2="-41.832%" y2="90.649%" id="wifi_illu-b"><stop stop-color="#D6F6F3" offset="0%"/><stop stop-color="#00BEAC" offset="100%"/></linearGradient><linearGradient x1="113.285%" y1="43.499%" x2="-41.832%" y2="58.474%" id="wifi_illu-c"><stop stop-color="#D6F6F3" offset="0%"/><stop stop-color="#00BEAC" offset="100%"/></linearGradient></defs><g fill-rule="nonzero" fill="none"><path d="M84.325 79.727C78.093 73.51 69.488 69.66 60 69.66c-9.49 0-18.095 3.85-24.326 10.068l-13.73-13.7C31.693 56.3 45.154 50.272 60 50.272c14.844 0 28.306 6.027 38.056 15.755l-13.73 13.7z" fill="url(#wifi_illu-a)"/><path d="M44.43 88.464L60 104l15.57-15.536A21.98 21.98 0 0060 82.031a21.98 21.98 0 00-15.57 6.433z" fill="url(#wifi_illu-b)"/><path d="M60 39.385c17.853 0 34.043 7.245 45.768 18.947l13.732-13.7C104.256 29.42 83.21 20 60 20S15.744 29.42.5 44.632l13.731 13.7C25.956 46.63 42.147 39.385 60 39.385z" fill="url(#wifi_illu-c)"/></g></svg>